<mxfile host="app.diagrams.net" modified="2021-12-14T20:29:16.505Z" agent="5.0 (X11)" etag="pjyPRhTytbGDG3JVfw7x" version="15.9.6" type="github">
  <diagram id="mLce42YxQa1ROGBipGIy" name="Page-1">
    <mxGraphModel dx="934" dy="547" grid="1" gridSize="10" guides="1" tooltips="1" connect="1" arrows="1" fold="1" page="1" pageScale="1" pageWidth="827" pageHeight="1169" math="0" shadow="0">
      <root>
        <mxCell id="0" />
        <mxCell id="1" parent="0" />
        <mxCell id="ceGlL02DoTru_mRgoMs8-1" value="&lt;font style=&quot;font-size: 10px&quot;&gt;time_create&lt;/font&gt;" style="rounded=0;whiteSpace=wrap;html=1;" vertex="1" parent="1">
          <mxGeometry x="549" y="290" width="100" height="20" as="geometry" />
        </mxCell>
        <mxCell id="ceGlL02DoTru_mRgoMs8-2" value="" style="endArrow=classic;html=1;rounded=0;" edge="1" parent="1">
          <mxGeometry width="50" height="50" relative="1" as="geometry">
            <mxPoint x="310" y="160" as="sourcePoint" />
            <mxPoint x="310" y="600" as="targetPoint" />
          </mxGeometry>
        </mxCell>
        <mxCell id="ceGlL02DoTru_mRgoMs8-3" value="t" style="text;html=1;strokeColor=none;fillColor=none;align=center;verticalAlign=middle;whiteSpace=wrap;rounded=0;" vertex="1" parent="1">
          <mxGeometry x="270" y="150" width="60" height="30" as="geometry" />
        </mxCell>
        <mxCell id="ceGlL02DoTru_mRgoMs8-29" style="edgeStyle=orthogonalEdgeStyle;rounded=0;orthogonalLoop=1;jettySize=auto;html=1;entryX=0.5;entryY=0;entryDx=0;entryDy=0;" edge="1" parent="1" source="ceGlL02DoTru_mRgoMs8-4" target="ceGlL02DoTru_mRgoMs8-1">
          <mxGeometry relative="1" as="geometry" />
        </mxCell>
        <mxCell id="ceGlL02DoTru_mRgoMs8-4" value="&lt;div style=&quot;font-size: 12px&quot;&gt;&lt;font style=&quot;font-size: 12px&quot;&gt;program&lt;/font&gt;&lt;/div&gt;" style="rounded=0;whiteSpace=wrap;html=1;fontSize=10;" vertex="1" parent="1">
          <mxGeometry x="549" y="170" width="100" height="50" as="geometry" />
        </mxCell>
        <mxCell id="ceGlL02DoTru_mRgoMs8-5" value="&lt;font style=&quot;font-size: 10px&quot;&gt;timer_settime&lt;/font&gt;" style="rounded=0;whiteSpace=wrap;html=1;fontSize=12;" vertex="1" parent="1">
          <mxGeometry x="549" y="330" width="100" height="20" as="geometry" />
        </mxCell>
        <mxCell id="ceGlL02DoTru_mRgoMs8-6" value="" style="endArrow=classic;html=1;rounded=0;fontSize=10;exitX=0.5;exitY=1;exitDx=0;exitDy=0;" edge="1" parent="1" source="ceGlL02DoTru_mRgoMs8-1" target="ceGlL02DoTru_mRgoMs8-5">
          <mxGeometry width="50" height="50" relative="1" as="geometry">
            <mxPoint x="589" y="410" as="sourcePoint" />
            <mxPoint x="639" y="360" as="targetPoint" />
          </mxGeometry>
        </mxCell>
        <mxCell id="ceGlL02DoTru_mRgoMs8-7" value="&lt;div&gt;infinite loop{&lt;/div&gt;&lt;div&gt;nanosleep&lt;br&gt;&lt;/div&gt;&lt;div&gt;}&lt;br&gt;&lt;/div&gt;" style="rounded=0;whiteSpace=wrap;html=1;fontSize=10;" vertex="1" parent="1">
          <mxGeometry x="549" y="370" width="100" height="50" as="geometry" />
        </mxCell>
        <mxCell id="ceGlL02DoTru_mRgoMs8-8" value="" style="endArrow=classic;html=1;rounded=0;fontSize=10;exitX=0.5;exitY=1;exitDx=0;exitDy=0;entryX=0.5;entryY=0;entryDx=0;entryDy=0;" edge="1" parent="1" source="ceGlL02DoTru_mRgoMs8-5" target="ceGlL02DoTru_mRgoMs8-7">
          <mxGeometry width="50" height="50" relative="1" as="geometry">
            <mxPoint x="449" y="440" as="sourcePoint" />
            <mxPoint x="499" y="390" as="targetPoint" />
          </mxGeometry>
        </mxCell>
        <mxCell id="ceGlL02DoTru_mRgoMs8-9" value="" style="endArrow=classic;html=1;rounded=0;fontSize=10;exitX=0.5;exitY=1;exitDx=0;exitDy=0;" edge="1" parent="1" source="ceGlL02DoTru_mRgoMs8-7">
          <mxGeometry width="50" height="50" relative="1" as="geometry">
            <mxPoint x="579" y="490" as="sourcePoint" />
            <mxPoint x="599" y="360" as="targetPoint" />
            <Array as="points">
              <mxPoint x="599" y="460" />
              <mxPoint x="709" y="460" />
              <mxPoint x="709" y="360" />
            </Array>
          </mxGeometry>
        </mxCell>
        <mxCell id="ceGlL02DoTru_mRgoMs8-30" value="bash shell" style="rounded=0;whiteSpace=wrap;html=1;" vertex="1" parent="1">
          <mxGeometry x="340" y="160" width="99" height="50" as="geometry" />
        </mxCell>
        <mxCell id="ceGlL02DoTru_mRgoMs8-32" value="" style="endArrow=none;dashed=1;html=1;dashPattern=1 3;strokeWidth=2;rounded=0;fontSize=12;entryX=0.5;entryY=1;entryDx=0;entryDy=0;" edge="1" parent="1" target="ceGlL02DoTru_mRgoMs8-30">
          <mxGeometry width="50" height="50" relative="1" as="geometry">
            <mxPoint x="390" y="600" as="sourcePoint" />
            <mxPoint x="440" y="220" as="targetPoint" />
          </mxGeometry>
        </mxCell>
        <mxCell id="ceGlL02DoTru_mRgoMs8-35" value="" style="endArrow=classic;dashed=1;html=1;dashPattern=1 3;strokeWidth=2;rounded=0;fontSize=12;" edge="1" parent="1">
          <mxGeometry width="50" height="50" relative="1" as="geometry">
            <mxPoint x="400" y="440" as="sourcePoint" />
            <mxPoint x="580" y="440" as="targetPoint" />
          </mxGeometry>
        </mxCell>
        <mxCell id="ceGlL02DoTru_mRgoMs8-36" value="&lt;font style=&quot;font-size: 10px&quot;&gt;kill -signal PID&lt;/font&gt;" style="text;html=1;strokeColor=none;fillColor=none;align=center;verticalAlign=middle;whiteSpace=wrap;rounded=0;fontSize=12;" vertex="1" parent="1">
          <mxGeometry x="400" y="410" width="100" height="30" as="geometry" />
        </mxCell>
      </root>
    </mxGraphModel>
  </diagram>
</mxfile>
